#!OML:ASF F:\VICON\USERDATA\INSTALL\rory3\rory3.ASF
:FULLY-SPECIFIED
:DEGREES
670
root -0.425605 18.0284 2.41841 -15.1354 -85.9129 -347.477
lowerback 9.20821 1.87682 -0.782997
upperback 0.108693 2.40244 0.048909
thorax -5.0858 1.19908 0.1683
lowerneck -21.4965 -5.21039 -11.5014
upperneck 29.5899 -6.51718 8.1591
head 14.4609 -3.15014 4.03304
rclavicle -4.9485e-014 4.17448e-015
rhumerus -34.7286 -10.4876 -83.3317
rradius 29.1183
rwrist 7.81326
rhand -14.5626 8.71616
rfingers 7.12502
rthumb 11.5866 -20.9435
lclavicle -4.9485e-014 4.17448e-015
lhumerus -34.9637 4.76776 85.9589
lradius 30.1938
lwrist -7.71169
lhand -17.0447 25.0748
lfingers 7.12502
lthumb 9.19219 54.8544
rfemur -3.21447 -1.69895 22.2295
rtibia 26.1452
rfoot -15.8417 -4.06297
rtoes 10.8349
lfemur 2.75878 -1.75836 -23.3802
ltibia 12.9181
lfoot -7.84077 -0.87004
ltoes -12.8265
671
root -0.422591 18.0288 2.40788 -14.2028 -85.9558 -348.444
lowerback 9.27476 1.88075 -0.744565
upperback 0.11471 2.41168 0.063863
thorax -5.11606 1.20266 0.158885
lowerneck -21.5472 -5.22991 -11.442
upperneck 29.7125 -6.545 8.06975
head 14.5236 -3.16936 3.98313
rclavicle -2.24813e-014 -3.67752e-015
rhumerus -34.7487 -10.5675 -83.3653
rradius 29.1126
rwrist 7.63255
rhand -14.6309 8.66221
rfingers 7.12502
rthumb 11.5208 -21.0012
lclavicle -2.24813e-014 -3.67752e-015
lhumerus -34.9679 4.65402 85.9838
lradius 30.3756
lwrist -7.57317
lhand -17.2122 24.6038
lfingers 7.12502
lthumb 9.03054 54.3905
rfemur -3.16236 -1.68522 22.3511
rtibia 26.0565
rfoot -15.7856 -4.05776
rtoes 11.3074
lfemur 2.6913 -1.96148 -23.288
ltibia 13.114
lfoot -7.90813 -0.620875
ltoes -12.7746
672
root -0.419858 18.0292 2.39996 -13.9869 -85.9834 -348.645
lowerback 9.29522 1.88785 -0.786029
upperback 0.0990277 2.41895 0.106911
thorax -5.14771 1.20791 0.224839
lowerneck -21.5607 -5.28088 -11.5634
upperneck 29.7569 -6.59657 8.12297
head 14.5612 -3.19922 4.01753
rclavicle -9.52303e-015 3.97569e-016
rhumerus -34.8246 -10.4055 -83.398
rradius 29.1847
rwrist 7.20559
rhand -14.733 8.49781
rfingers 7.12502
rthumb 11.4223 -21.1711
lclavicle -9.52303e-015 3.97569e-016
lhumerus -34.958 4.55092 86.1024
lradius 30.5197
lwrist -7.48786
lhand -17.0548 24.4564
lfingers 7.12502
lthumb 9.18245 54.2365
rfemur -3.16806 -1.61814 22.4155
rtibia 25.9956
rfoot -15.6966 -4.13456
rtoes 10.9457
lfemur 2.60254 -2.12604 -23.2661
ltibia 13.2549
lfoot -7.89184 -0.363519
ltoes -13.1188
673
root -0.416448 18.029 2.39221 -13.3844 -86.0164 -349.26
lowerback 9.35595 1.87895 -0.774896
upperback 0.0808895 2.4099 0.14538
thorax -5.20196 1.20367 0.25737
lowerneck -21.4942 -5.29357 -11.6939
upperneck 29.7132 -6.60365 8.21686
head 14.5383 -3.20561 4.07725
rclavicle -2.06488e-014 9.93923e-017
rhumerus -34.8828 -10.4321 -83.3179
rradius 29.1449
rwrist 7.29597
rhand -14.6982 8.57286
rfingers 7.12502
rthumb 11.4558 -21.0942
lclavicle -2.06488e-014 9.93923e-017
lhumerus -34.9778 4.71088 86.1178
lradius 30.6394
lwrist -7.55856
lhand -16.8687 24.6622
lfingers 7.12502
lthumb 9.36202 54.4343
rfemur -3.16666 -1.50943 22.5164
rtibia 25.9832
rfoot -15.6622 -4.21213
rtoes 11.0724
lfemur 2.57959 -2.00518 -23.1759
ltibia 13.2888
lfoot -7.97372 -0.467743
ltoes -13.8218
674
root -0.411476 18.0265 2.38398 -13.7079 -86.0037 -348.982
lowerback 9.4555 1.82227 -0.787431
upperback 0.0776688 2.3327 0.159655
thorax -5.26142 1.16591 0.286562
lowerneck -21.4236 -5.27307 -11.8706
upperneck 29.6484 -6.53335 8.28891
head 14.4958 -3.18651 4.15029
rclavicle -1.32005e-015 -4.87022e-015
rhumerus -34.9212 -10.4083 -83.2527
rradius 29.091
rwrist 7.60667
rhand -14.6096 8.71629
rfingers 7.12502
rthumb 11.5412 -20.946
lclavicle -1.32005e-015 -4.87022e-015
lhumerus -35.01 4.77214 86.1457
lradius 30.7754
lwrist -7.43349
lhand -16.9177 25.039
lfingers 7.12502
lthumb 9.31474 54.8132
rfemur -3.14406 -1.37389 22.5452
rtibia 26.0171
rfoot -15.684 -4.31797
rtoes 11.79
lfemur 2.61441 -1.82765 -23.1509
ltibia 13.2479
lfoot -8.07998 -0.671468
ltoes -14.603
